<?xml version="1.0" encoding="UTF-8"?><svg id="b" xmlns="http://www.w3.org/2000/svg" viewBox="0 0 43.16 44"><defs><style>.j{fill:#f89a1c;}.j,.k,.l,.m{stroke-width:0px;}.k{fill:#1f225a;}.l{fill:#f16022;}.m{fill:#fdb813;}</style></defs><g id="c"><g id="d"><path id="e" class="k" d="M12.97,44v-5.03h1.22v5.03h-1.22ZM19.63,44l-2.02-3.29h-.02l.03,3.29h-1.18v-5.03h1.38l2.02,3.28h.02l-.03-3.28h1.18v5.03h-1.38ZM26.31,44l-2.02-3.29h-.02l.03,3.29h-1.18v-5.03h1.38l2.02,3.28h.02l-.03-3.28h1.18v5.03h-1.38ZM6.97,33.24c0-.41.07-.79.22-1.12.15-.33.35-.62.61-.86.26-.24.56-.42.92-.55.35-.13.73-.19,1.12-.19s.77.06,1.12.19c.35.13.66.31.92.55.26.24.46.52.61.86.15.33.22.71.22,1.12s-.07.79-.22,1.12c-.15.33-.35.62-.61.86-.26.24-.56.42-.92.55-.35.13-.73.19-1.12.19s-.77-.06-1.12-.19-.66-.31-.92-.55c-.26-.24-.46-.52-.61-.86-.15-.33-.22-.71-.22-1.12ZM8.56,33.24c0,.39.11.71.34.95.22.24.54.36.94.36s.72-.12.94-.36c.22-.24.34-.56.34-.95s-.11-.71-.34-.95c-.22-.24-.54-.36-.94-.36s-.72.12-.94.36c-.22.24-.34.56-.34.95ZM13.41,30.65h1.53v.7h.02c.05-.1.12-.2.21-.3.09-.1.2-.19.33-.27.13-.08.27-.14.44-.19.16-.05.34-.07.53-.07.36,0,.68.07.96.22.28.15.49.38.63.7.18-.33.41-.57.67-.71.26-.14.59-.21.97-.21.35,0,.64.06.88.18.24.12.43.28.56.48.14.2.24.44.3.71.06.27.09.57.09.88v3.06h-1.6v-3.02c0-.24-.05-.45-.15-.62-.1-.17-.29-.26-.55-.26-.18,0-.34.03-.46.09-.12.06-.22.14-.3.25-.07.11-.13.23-.16.37-.03.14-.05.29-.05.45v2.74h-1.6v-2.74c0-.09,0-.21-.01-.34,0-.13-.03-.26-.07-.38-.04-.12-.11-.22-.21-.31-.1-.09-.24-.13-.42-.13-.21,0-.37.04-.5.11-.13.07-.23.17-.29.3-.07.12-.11.26-.13.42-.02.16-.03.32-.03.49v2.58h-1.6v-5.18ZM23.2,31.93h-1.06v-1.28h1.06v-.92c0-.28.02-.55.07-.8.05-.25.15-.47.29-.67.14-.19.35-.34.61-.45.27-.11.62-.17,1.05-.17.16,0,.32,0,.48.02.16.01.31.04.46.07l-.07,1.33-.26-.06c-.08-.02-.17-.03-.27-.03-.26,0-.45.06-.58.17-.13.11-.19.34-.19.68v.82h1.18v1.28h-1.18v3.9h-1.6v-3.9ZM26.23,33.24c0-.41.07-.79.22-1.12.15-.33.35-.62.61-.86.26-.24.56-.42.92-.55.35-.13.73-.19,1.12-.19s.77.06,1.12.19c.35.13.66.31.92.55.26.24.46.52.61.86.15.33.22.71.22,1.12s-.07.79-.22,1.12c-.15.33-.35.62-.61.86-.26.24-.56.42-.92.55-.35.13-.73.19-1.12.19s-.77-.06-1.12-.19-.66-.31-.92-.55c-.26-.24-.46-.52-.61-.86-.15-.33-.22-.71-.22-1.12ZM27.82,33.24c0,.39.11.71.34.95.22.24.54.36.94.36s.72-.12.94-.36c.22-.24.34-.56.34-.95s-.11-.71-.34-.95c-.22-.24-.54-.36-.94-.36s-.72.12-.94.36c-.22.24-.34.56-.34.95ZM32.76,30.65h1.6v.83h.02c.17-.32.37-.56.61-.72.23-.16.53-.24.88-.24.09,0,.18,0,.28.01.09,0,.18.02.13.04v1.41l-.21-.03c-.11-.02-.23-.03-.35-.03-.31,0-.55.04-.72.13-.18.09-.31.2-.41.36-.1.15-.16.34-.19.55-.03.21-.04.45-.04.7v2.16h-1.6v-5.18ZM40.78,31.93h-1.41v1.73c0,.14,0,.27.02.39.01.12.05.22.1.3.05.09.13.15.23.2.1.05.24.07.41.07.09,0,.2,0,.34-.03.14-.02.24-.06.31-.12v1.33c-.18.06-.36.11-.55.13-.19.02-.38.03-.56.03-.27,0-.52-.03-.75-.09-.23-.06-.43-.15-.6-.27-.17-.12-.3-.29-.4-.48-.1-.2-.14-.44-.14-.72v-2.46h-1.02v-1.28h1.02v-1.53h1.6v1.53h1.41v1.28ZM4.76,34.28c-.26.14-.56.21-.91.21-.3,0-.58-.06-.84-.18-.26-.12-.48-.29-.68-.51-.19-.22-.34-.47-.45-.77-.11-.29-.17-.62-.17-.98s.05-.67.17-.97c.11-.3.26-.56.46-.77.2-.22.43-.39.69-.51.27-.12.56-.18.87-.18s.59.05.83.16c.17.08.32.18.45.3l1.41-.91c-.16-.19-.33-.36-.53-.49-.21-.14-.42-.26-.64-.34-.22-.09-.45-.15-.68-.19-.23-.04-.45-.06-.67-.06-.59,0-1.13.09-1.63.28-.5.18-.93.45-1.29.79-.36.34-.64.76-.85,1.25-.2.49-.3,1.04-.3,1.64s.1,1.15.3,1.64c.2.49.48.91.85,1.25.36.34.79.61,1.29.79.5.18,1.04.28,1.63.28.52,0,1.02-.11,1.51-.32.48-.21.88-.53,1.2-.97l-1.45-.94c-.16.2-.34.37-.57.49Z"/><g id="f"><path id="g" class="m" d="M30.76,3.29s-.08.05-.13.06c-.01,0-.02,0-.03,0-.05,0-.11,0-.16,0-.07-.02-.15-.05-.21-.11-1.25-1.07-2.64-1.76-4.05-2.1-.74-.18-1.48-.25-2.21-.23-.24,0-.47.03-.7.06-.07,0-.14.02-.2.03-.17.03-.34.06-.51.1-.06.01-.13.03-.19.04-.22.06-.45.12-.66.2-.01,0-.03.01-.04.02-.2.07-.4.16-.59.25-.06.03-.12.06-.18.09-.15.08-.3.16-.45.25-.06.03-.11.07-.17.1-.63.41-1.19.93-1.67,1.56-.59.78-1,1.66-1.23,2.6.03,0,.06,0,.09,0,.73-.02,1.47.05,2.21.23,1.41.34,2.8,1.03,4.05,2.1.07.06.14.09.21.11.12.03.25,0,.34-.07l6.5-5.29h0Z"/><path id="h" class="l" d="M23.81,23.53s-.05.03-.08.05c-1.51.69-3.24.88-4.98.57-.19-.03-.38-.07-.56-.12-1.55-.37-3.1-1.14-4.48-2.32-2.1-1.8-3.42-4.2-3.84-6.63-.15-.84-.19-1.68-.12-2.5.13-1.56.65-3.05,1.6-4.3.37-.49.79-.92,1.24-1.29l6.04-4.91s.46-.37.46-.38c-.15.12-.29.26-.42.39-.07.07-.15.13-.22.2-.2.21-.4.44-.58.68-.12.16-.23.32-.34.48-.26.41-.48.84-.67,1.29-.2.5-.36,1.02-.46,1.55-.03.13-.05.26-.07.4-.03.19-.05.39-.07.58-.07.82-.03,1.66.12,2.5.05.3.12.61.2.91.16.6.38,1.2.65,1.78.54,1.16,1.29,2.27,2.24,3.24.24.24.49.48.75.7,1.38,1.18,2.92,1.95,4.48,2.32.19.05.38.08.56.12.22.04.44.07.65.09s.43.04.65.05c.43.01.86,0,1.28-.05.21-.02.42-.06.62-.1.62-.12,1.21-.31,1.78-.57.03-.01.05-.03.07-.04h0s-6.51,5.29-6.51,5.29Z"/><path id="i" class="j" d="M30.72,2.58c-1.38-1.18-2.92-1.95-4.48-2.32-.82-.2-1.64-.28-2.44-.25-1.74.05-3.39.63-4.71,1.71-.15.12-.29.26-.42.39-.07.07-.15.13-.22.2-.2.21-.4.44-.58.68-.12.16-.23.32-.34.48-.26.41-.48.84-.67,1.29-.2.5-.36,1.02-.46,1.55-.03.13-.05.26-.07.4-.03.19-.05.39-.07.58-.07.82-.03,1.66.12,2.5.05.3.12.61.2.91.16.6.38,1.2.65,1.78.54,1.16,1.29,2.27,2.24,3.24.24.24.49.48.75.7,1.38,1.18,2.92,1.95,4.48,2.32.19.05.38.08.56.12.22.04.44.07.65.09s.43.04.65.05c.43.01.86,0,1.28-.05.21-.02.42-.06.62-.1.62-.12,1.21-.31,1.78-.57.21-.09.28-.36.15-.59-.08-.14-.2-.23-.34-.27-.09-.02-.18-.02-.26.02-1.36.62-2.93.8-4.51.52-.17-.03-.34-.06-.51-.11-1.41-.34-2.8-1.03-4.05-2.1-1.9-1.63-3.09-3.8-3.48-6-.13-.76-.17-1.52-.11-2.26.04-.44.11-.87.22-1.29.24-.93.64-1.82,1.23-2.6.48-.63,1.04-1.15,1.67-1.56.05-.04.11-.07.17-.1.15-.09.3-.18.45-.25.06-.03.12-.06.18-.09.19-.09.39-.18.59-.25.01,0,.03-.01.04-.02.22-.08.44-.14.66-.2.06-.02.13-.03.19-.04.17-.04.34-.07.51-.1.07-.01.13-.02.2-.03.23-.03.47-.05.7-.06.73-.02,1.47.05,2.21.23,1.41.34,2.8,1.03,4.05,2.1.07.06.14.09.21.11.06.01.11.01.16,0,.01,0,.02,0,.03,0,.05-.01.1-.03.14-.06.02-.02.05-.04.07-.07.14-.18.09-.47-.11-.64Z"/></g></g><path class="k" d="M41.61,29.89c0-.11.02-.21.06-.3.04-.09.1-.17.17-.24.07-.07.15-.12.24-.17.09-.04.19-.06.3-.06s.21.02.3.06c.09.04.17.1.24.17.07.07.12.15.17.24.04.09.06.19.06.3s-.02.21-.06.3c-.04.09-.1.17-.17.24-.07.07-.15.13-.24.17-.09.04-.19.06-.3.06s-.21-.02-.3-.06c-.09-.04-.17-.1-.24-.17-.07-.07-.12-.15-.17-.24-.04-.09-.06-.19-.06-.3ZM41.75,29.89c0,.09.02.17.05.25.03.08.08.14.14.2.06.06.12.1.2.14.08.03.16.05.25.05s.17-.02.25-.05c.08-.03.14-.08.2-.14.06-.06.1-.12.14-.2.03-.08.05-.16.05-.25s-.02-.17-.05-.25c-.03-.08-.08-.14-.14-.2-.06-.06-.12-.1-.2-.14-.08-.03-.16-.05-.25-.05s-.17.02-.25.05c-.08.03-.14.08-.2.14-.06.06-.1.12-.14.2-.03.08-.05.16-.05.25ZM42.09,29.44h.34c.11,0,.18.02.24.07.05.05.08.11.08.2,0,.08-.02.14-.06.17-.04.04-.09.06-.15.07l.23.37h-.17l-.22-.36h-.12v.36h-.16v-.88ZM42.25,29.83h.12s.05,0,.07,0c.02,0,.05,0,.07-.02.02,0,.04-.02.05-.04.01-.02.02-.04.02-.07s0-.05-.02-.07c-.01-.02-.03-.03-.05-.04-.02,0-.04-.01-.07-.01-.02,0-.05,0-.07,0h-.12v.25Z"/></g></svg>